solid STL generated by MeshLab
  facet normal -0.000000e+00  0.000000e+00  1.000000e+00
    outer loop
      vertex   3.831900e+01  1.524000e+00  1.143000e+00
      vertex   3.870000e+01  0.000000e+00  1.143000e+00
      vertex   3.831900e+01  1.752600e+01  1.143000e+00
    endloop
  endfacet
  facet normal -0.000000e+00  0.000000e+00  1.000000e+00
    outer loop
      vertex   3.831900e+01  1.752600e+01  1.143000e+00
      vertex   3.870000e+01  0.000000e+00  1.143000e+00
      vertex   3.870000e+01  1.905000e+01  1.143000e+00
    endloop
  endfacet
  facet normal -0.000000e+00  0.000000e+00  1.000000e+00
    outer loop
      vertex   0.000000e+00  1.905000e+01  1.143000e+00
      vertex   9.363000e+00  1.866900e+01  1.143000e+00
      vertex   3.870000e+01  1.905000e+01  1.143000e+00
    endloop
  endfacet
  facet normal  0.000000e+00  0.000000e+00  1.000000e+00
    outer loop
      vertex   3.870000e+01  1.905000e+01  1.143000e+00
      vertex   9.363000e+00  1.866900e+01  1.143000e+00
      vertex   3.717600e+01  1.866900e+01  1.143000e+00
    endloop
  endfacet
  facet normal  0.000000e+00  0.000000e+00  1.000000e+00
    outer loop
      vertex   3.870000e+01  1.905000e+01  1.143000e+00
      vertex   3.717600e+01  1.866900e+01  1.143000e+00
      vertex   3.831900e+01  1.752600e+01  1.143000e+00
    endloop
  endfacet
  facet normal  0.000000e+00  0.000000e+00  1.000000e+00
    outer loop
      vertex   3.831900e+01  1.524000e+00  1.143000e+00
      vertex   3.717600e+01  3.810000e-01  1.143000e+00
      vertex   3.870000e+01  0.000000e+00  1.143000e+00
    endloop
  endfacet
  facet normal  0.000000e+00  0.000000e+00  1.000000e+00
    outer loop
      vertex   3.870000e+01  0.000000e+00  1.143000e+00
      vertex   3.717600e+01  3.810000e-01  1.143000e+00
      vertex   9.363000e+00  3.810000e-01  1.143000e+00
    endloop
  endfacet
  facet normal  0.000000e+00  0.000000e+00  1.000000e+00
    outer loop
      vertex   3.870000e+01  0.000000e+00  1.143000e+00
      vertex   9.363000e+00  3.810000e-01  1.143000e+00
      vertex   0.000000e+00  0.000000e+00  1.143000e+00
    endloop
  endfacet
  facet normal  0.000000e+00 -0.000000e+00  1.000000e+00
    outer loop
      vertex   8.220000e+00  1.752600e+01  1.143000e+00
      vertex   9.363000e+00  1.866900e+01  1.143000e+00
      vertex   4.191000e+00  1.428750e+01  1.143000e+00
    endloop
  endfacet
  facet normal  0.000000e+00 -0.000000e+00  1.000000e+00
    outer loop
      vertex   4.191000e+00  1.428750e+01  1.143000e+00
      vertex   9.363000e+00  1.866900e+01  1.143000e+00
      vertex   0.000000e+00  1.905000e+01  1.143000e+00
    endloop
  endfacet
  facet normal  0.000000e+00  0.000000e+00  1.000000e+00
    outer loop
      vertex   4.191000e+00  1.428750e+01  1.143000e+00
      vertex   0.000000e+00  1.905000e+01  1.143000e+00
      vertex   3.810000e-01  1.428750e+01  1.143000e+00
    endloop
  endfacet
  facet normal  0.000000e+00  0.000000e+00  1.000000e+00
    outer loop
      vertex   3.810000e-01  1.428750e+01  1.143000e+00
      vertex   0.000000e+00  1.905000e+01  1.143000e+00
      vertex   0.000000e+00  0.000000e+00  1.143000e+00
    endloop
  endfacet
  facet normal  0.000000e+00  0.000000e+00  1.000000e+00
    outer loop
      vertex   3.810000e-01  1.428750e+01  1.143000e+00
      vertex   0.000000e+00  0.000000e+00  1.143000e+00
      vertex   3.810000e-01  4.762500e+00  1.143000e+00
    endloop
  endfacet
  facet normal  0.000000e+00  0.000000e+00  1.000000e+00
    outer loop
      vertex   3.810000e-01  4.762500e+00  1.143000e+00
      vertex   0.000000e+00  0.000000e+00  1.143000e+00
      vertex   9.363000e+00  3.810000e-01  1.143000e+00
    endloop
  endfacet
  facet normal -0.000000e+00  0.000000e+00  1.000000e+00
    outer loop
      vertex   3.810000e-01  4.762500e+00  1.143000e+00
      vertex   9.363000e+00  3.810000e-01  1.143000e+00
      vertex   4.191000e+00  4.762500e+00  1.143000e+00
    endloop
  endfacet
  facet normal  0.000000e+00  0.000000e+00  1.000000e+00
    outer loop
      vertex   4.191000e+00  4.762500e+00  1.143000e+00
      vertex   9.363000e+00  3.810000e-01  1.143000e+00
      vertex   8.220000e+00  1.524000e+00  1.143000e+00
    endloop
  endfacet
  facet normal -0.000000e+00  0.000000e+00  1.000000e+00
    outer loop
      vertex   4.191000e+00  4.762500e+00  1.143000e+00
      vertex   8.220000e+00  1.524000e+00  1.143000e+00
      vertex   4.191000e+00  1.428750e+01  1.143000e+00
    endloop
  endfacet
  facet normal -0.000000e+00  0.000000e+00  1.000000e+00
    outer loop
      vertex   4.191000e+00  1.428750e+01  1.143000e+00
      vertex   8.220000e+00  1.524000e+00  1.143000e+00
      vertex   8.220000e+00  1.752600e+01  1.143000e+00
    endloop
  endfacet
  facet normal -1.000000e+00  0.000000e+00  0.000000e+00
    outer loop
      vertex   0.000000e+00  0.000000e+00  1.143000e+00
      vertex   0.000000e+00  1.905000e+01  1.143000e+00
      vertex   0.000000e+00  0.000000e+00  0.000000e+00
    endloop
  endfacet
  facet normal -1.000000e+00  0.000000e+00  0.000000e+00
    outer loop
      vertex   0.000000e+00  0.000000e+00  0.000000e+00
      vertex   0.000000e+00  1.905000e+01  1.143000e+00
      vertex   0.000000e+00  1.905000e+01  0.000000e+00
    endloop
  endfacet
  facet normal -0.000000e+00 -1.000000e+00 -0.000000e+00
    outer loop
      vertex   3.870000e+01  0.000000e+00  1.143000e+00
      vertex   0.000000e+00  0.000000e+00  1.143000e+00
      vertex   3.870000e+01  0.000000e+00  0.000000e+00
    endloop
  endfacet
  facet normal  0.000000e+00 -1.000000e+00  0.000000e+00
    outer loop
      vertex   3.870000e+01  0.000000e+00  0.000000e+00
      vertex   0.000000e+00  0.000000e+00  1.143000e+00
      vertex   0.000000e+00  0.000000e+00  0.000000e+00
    endloop
  endfacet
  facet normal  1.000000e+00  0.000000e+00  0.000000e+00
    outer loop
      vertex   3.870000e+01  1.905000e+01  1.143000e+00
      vertex   3.870000e+01  0.000000e+00  1.143000e+00
      vertex   3.870000e+01  1.905000e+01  0.000000e+00
    endloop
  endfacet
  facet normal  1.000000e+00  0.000000e+00  0.000000e+00
    outer loop
      vertex   3.870000e+01  1.905000e+01  0.000000e+00
      vertex   3.870000e+01  0.000000e+00  1.143000e+00
      vertex   3.870000e+01  0.000000e+00  0.000000e+00
    endloop
  endfacet
  facet normal -0.000000e+00  1.000000e+00  0.000000e+00
    outer loop
      vertex   0.000000e+00  1.905000e+01  1.143000e+00
      vertex   3.870000e+01  1.905000e+01  1.143000e+00
      vertex   0.000000e+00  1.905000e+01  0.000000e+00
    endloop
  endfacet
  facet normal  0.000000e+00  1.000000e+00  0.000000e+00
    outer loop
      vertex   0.000000e+00  1.905000e+01  0.000000e+00
      vertex   3.870000e+01  1.905000e+01  1.143000e+00
      vertex   3.870000e+01  1.905000e+01  0.000000e+00
    endloop
  endfacet
  facet normal -0.000000e+00 -0.000000e+00 -1.000000e+00
    outer loop
      vertex   3.870000e+01  1.905000e+01  0.000000e+00
      vertex   3.870000e+01  0.000000e+00  0.000000e+00
      vertex   0.000000e+00  1.905000e+01  0.000000e+00
    endloop
  endfacet
  facet normal  0.000000e+00  0.000000e+00 -1.000000e+00
    outer loop
      vertex   0.000000e+00  1.905000e+01  0.000000e+00
      vertex   3.870000e+01  0.000000e+00  0.000000e+00
      vertex   0.000000e+00  0.000000e+00  0.000000e+00
    endloop
  endfacet
  facet normal -1.000000e+00  0.000000e+00  0.000000e+00
    outer loop
      vertex   8.220000e+00  1.752600e+01  1.143000e+00
      vertex   8.220000e+00  1.524000e+00  1.143000e+00
      vertex   8.220000e+00  1.752600e+01  3.810000e+00
    endloop
  endfacet
  facet normal -1.000000e+00 -0.000000e+00  0.000000e+00
    outer loop
      vertex   8.220000e+00  1.752600e+01  3.810000e+00
      vertex   8.220000e+00  1.524000e+00  1.143000e+00
      vertex   8.220000e+00  1.524000e+00  3.810000e+00
    endloop
  endfacet
  facet normal -0.000000e+00 -1.000000e+00 -0.000000e+00
    outer loop
      vertex   3.717600e+01  3.810000e-01  3.810000e+00
      vertex   9.363000e+00  3.810000e-01  3.810000e+00
      vertex   3.717600e+01  3.810000e-01  1.143000e+00
    endloop
  endfacet
  facet normal  0.000000e+00 -1.000000e+00  0.000000e+00
    outer loop
      vertex   3.717600e+01  3.810000e-01  1.143000e+00
      vertex   9.363000e+00  3.810000e-01  3.810000e+00
      vertex   9.363000e+00  3.810000e-01  1.143000e+00
    endloop
  endfacet
  facet normal  1.000000e+00  0.000000e+00  0.000000e+00
    outer loop
      vertex   3.831900e+01  1.752600e+01  3.810000e+00
      vertex   3.831900e+01  1.524000e+00  3.810000e+00
      vertex   3.831900e+01  1.752600e+01  1.143000e+00
    endloop
  endfacet
  facet normal  1.000000e+00  0.000000e+00  0.000000e+00
    outer loop
      vertex   3.831900e+01  1.752600e+01  1.143000e+00
      vertex   3.831900e+01  1.524000e+00  3.810000e+00
      vertex   3.831900e+01  1.524000e+00  1.143000e+00
    endloop
  endfacet
  facet normal  0.000000e+00  1.000000e+00 -0.000000e+00
    outer loop
      vertex   3.717600e+01  1.866900e+01  1.143000e+00
      vertex   9.363000e+00  1.866900e+01  1.143000e+00
      vertex   3.717600e+01  1.866900e+01  3.810000e+00
    endloop
  endfacet
  facet normal  0.000000e+00  1.000000e+00  0.000000e+00
    outer loop
      vertex   3.717600e+01  1.866900e+01  3.810000e+00
      vertex   9.363000e+00  1.866900e+01  1.143000e+00
      vertex   9.363000e+00  1.866900e+01  3.810000e+00
    endloop
  endfacet
  facet normal -0.000000e+00  0.000000e+00  1.000000e+00
    outer loop
      vertex   8.220000e+00  1.752600e+01  3.810000e+00
      vertex   8.220000e+00  1.524000e+00  3.810000e+00
      vertex   9.363000e+00  1.866900e+01  3.810000e+00
    endloop
  endfacet
  facet normal  0.000000e+00  0.000000e+00  1.000000e+00
    outer loop
      vertex   9.363000e+00  1.866900e+01  3.810000e+00
      vertex   8.220000e+00  1.524000e+00  3.810000e+00
      vertex   9.363000e+00  3.810000e-01  3.810000e+00
    endloop
  endfacet
  facet normal  0.000000e+00  0.000000e+00  1.000000e+00
    outer loop
      vertex   3.717600e+01  1.866900e+01  3.810000e+00
      vertex   9.363000e+00  1.866900e+01  3.810000e+00
      vertex   3.831900e+01  1.752600e+01  3.810000e+00
    endloop
  endfacet
  facet normal  0.000000e+00  0.000000e+00  1.000000e+00
    outer loop
      vertex   3.831900e+01  1.752600e+01  3.810000e+00
      vertex   9.363000e+00  1.866900e+01  3.810000e+00
      vertex   9.363000e+00  3.810000e-01  3.810000e+00
    endloop
  endfacet
  facet normal  0.000000e+00  0.000000e+00  1.000000e+00
    outer loop
      vertex   3.831900e+01  1.752600e+01  3.810000e+00
      vertex   9.363000e+00  3.810000e-01  3.810000e+00
      vertex   3.831900e+01  1.524000e+00  3.810000e+00
    endloop
  endfacet
  facet normal  0.000000e+00  0.000000e+00  1.000000e+00
    outer loop
      vertex   3.831900e+01  1.524000e+00  3.810000e+00
      vertex   9.363000e+00  3.810000e-01  3.810000e+00
      vertex   3.717600e+01  3.810000e-01  3.810000e+00
    endloop
  endfacet
  facet normal  7.071074e-01  7.071062e-01 -0.000000e+00
    outer loop
      vertex   3.831900e+01  1.752600e+01  1.143000e+00
      vertex   3.717600e+01  1.866900e+01  1.143000e+00
      vertex   3.831900e+01  1.752600e+01  3.810000e+00
    endloop
  endfacet
  facet normal  7.071074e-01  7.071062e-01  0.000000e+00
    outer loop
      vertex   3.831900e+01  1.752600e+01  3.810000e+00
      vertex   3.717600e+01  1.866900e+01  1.143000e+00
      vertex   3.717600e+01  1.866900e+01  3.810000e+00
    endloop
  endfacet
  facet normal  7.071075e-01 -7.071061e-01  0.000000e+00
    outer loop
      vertex   3.717600e+01  3.810000e-01  1.143000e+00
      vertex   3.831900e+01  1.524000e+00  1.143000e+00
      vertex   3.717600e+01  3.810000e-01  3.810000e+00
    endloop
  endfacet
  facet normal  7.071075e-01 -7.071061e-01  0.000000e+00
    outer loop
      vertex   3.717600e+01  3.810000e-01  3.810000e+00
      vertex   3.831900e+01  1.524000e+00  1.143000e+00
      vertex   3.831900e+01  1.524000e+00  3.810000e+00
    endloop
  endfacet
  facet normal -7.071068e-01  7.071068e-01  0.000000e+00
    outer loop
      vertex   9.363000e+00  1.866900e+01  1.143000e+00
      vertex   8.220000e+00  1.752600e+01  1.143000e+00
      vertex   9.363000e+00  1.866900e+01  3.810000e+00
    endloop
  endfacet
  facet normal -7.071068e-01  7.071068e-01  0.000000e+00
    outer loop
      vertex   9.363000e+00  1.866900e+01  3.810000e+00
      vertex   8.220000e+00  1.752600e+01  1.143000e+00
      vertex   8.220000e+00  1.752600e+01  3.810000e+00
    endloop
  endfacet
  facet normal -7.071069e-01 -7.071066e-01  0.000000e+00
    outer loop
      vertex   8.220000e+00  1.524000e+00  1.143000e+00
      vertex   9.363000e+00  3.810000e-01  1.143000e+00
      vertex   8.220000e+00  1.524000e+00  3.810000e+00
    endloop
  endfacet
  facet normal -7.071069e-01 -7.071066e-01  0.000000e+00
    outer loop
      vertex   8.220000e+00  1.524000e+00  3.810000e+00
      vertex   9.363000e+00  3.810000e-01  1.143000e+00
      vertex   9.363000e+00  3.810000e-01  3.810000e+00
    endloop
  endfacet
  facet normal -1.000000e+00  0.000000e+00  0.000000e+00
    outer loop
      vertex   3.810000e-01  4.762500e+00  2.286000e+00
      vertex   3.810000e-01  1.428750e+01  2.286000e+00
      vertex   3.810000e-01  4.762500e+00  1.143000e+00
    endloop
  endfacet
  facet normal -1.000000e+00  0.000000e+00  0.000000e+00
    outer loop
      vertex   3.810000e-01  4.762500e+00  1.143000e+00
      vertex   3.810000e-01  1.428750e+01  2.286000e+00
      vertex   3.810000e-01  1.428750e+01  1.143000e+00
    endloop
  endfacet
  facet normal -0.000000e+00 -1.000000e+00 -0.000000e+00
    outer loop
      vertex   4.191000e+00  4.762500e+00  2.286000e+00
      vertex   3.810000e-01  4.762500e+00  2.286000e+00
      vertex   4.191000e+00  4.762500e+00  1.143000e+00
    endloop
  endfacet
  facet normal  0.000000e+00 -1.000000e+00  0.000000e+00
    outer loop
      vertex   4.191000e+00  4.762500e+00  1.143000e+00
      vertex   3.810000e-01  4.762500e+00  2.286000e+00
      vertex   3.810000e-01  4.762500e+00  1.143000e+00
    endloop
  endfacet
  facet normal  1.000000e+00  0.000000e+00  0.000000e+00
    outer loop
      vertex   4.191000e+00  1.428750e+01  2.286000e+00
      vertex   4.191000e+00  4.762500e+00  2.286000e+00
      vertex   4.191000e+00  1.428750e+01  1.143000e+00
    endloop
  endfacet
  facet normal  1.000000e+00  0.000000e+00  0.000000e+00
    outer loop
      vertex   4.191000e+00  1.428750e+01  1.143000e+00
      vertex   4.191000e+00  4.762500e+00  2.286000e+00
      vertex   4.191000e+00  4.762500e+00  1.143000e+00
    endloop
  endfacet
  facet normal -0.000000e+00  1.000000e+00  0.000000e+00
    outer loop
      vertex   3.810000e-01  1.428750e+01  2.286000e+00
      vertex   4.191000e+00  1.428750e+01  2.286000e+00
      vertex   3.810000e-01  1.428750e+01  1.143000e+00
    endloop
  endfacet
  facet normal  0.000000e+00  1.000000e+00  0.000000e+00
    outer loop
      vertex   3.810000e-01  1.428750e+01  1.143000e+00
      vertex   4.191000e+00  1.428750e+01  2.286000e+00
      vertex   4.191000e+00  1.428750e+01  1.143000e+00
    endloop
  endfacet
  facet normal  0.000000e+00 -0.000000e+00  1.000000e+00
    outer loop
      vertex   4.191000e+00  4.762500e+00  2.286000e+00
      vertex   4.191000e+00  1.428750e+01  2.286000e+00
      vertex   3.810000e-01  4.762500e+00  2.286000e+00
    endloop
  endfacet
  facet normal  0.000000e+00  0.000000e+00  1.000000e+00
    outer loop
      vertex   3.810000e-01  4.762500e+00  2.286000e+00
      vertex   4.191000e+00  1.428750e+01  2.286000e+00
      vertex   3.810000e-01  1.428750e+01  2.286000e+00
    endloop
  endfacet
endsolid vcg
