solid STL generated by MeshLab
  facet normal -5.235058e-02 -9.986288e-01  0.000000e+00
    outer loop
      vertex   4.504717e+01  1.700224e+01  2.703163e+01
      vertex   4.504717e+01  1.700224e+01  4.303162e+01
      vertex   4.172515e+01  1.717639e+01  2.703163e+01
    endloop
  endfacet
  facet normal  9.986295e-01  5.233571e-02 -0.000000e+00
    outer loop
      vertex   5.152313e+01  2.697426e+01  2.703163e+01
      vertex   5.152313e+01  2.697426e+01  4.303162e+01
      vertex   5.169723e+01  2.365224e+01  2.703163e+01
    endloop
  endfacet
  facet normal  0.000000e+00  0.000000e+00 -1.000000e+00
    outer loop
      vertex   4.172515e+01  1.717639e+01  2.703163e+01
      vertex   3.876113e+01  1.868665e+01  2.703163e+01
      vertex   4.504717e+01  1.700224e+01  2.703163e+01
    endloop
  endfacet
  facet normal  0.000000e+00  0.000000e+00 -1.000000e+00
    outer loop
      vertex   4.504717e+01  1.700224e+01  2.703163e+01
      vertex   3.666764e+01  2.127178e+01  2.703163e+01
      vertex   4.815282e+01  1.819446e+01  2.703163e+01
    endloop
  endfacet
  facet normal  0.000000e+00  0.000000e+00 -1.000000e+00
    outer loop
      vertex   3.876113e+01  1.868665e+01  2.703163e+01
      vertex   3.666764e+01  2.127178e+01  2.703163e+01
      vertex   4.504717e+01  1.700224e+01  2.703163e+01
    endloop
  endfacet
  facet normal  3.583855e-01 -9.335737e-01  0.000000e+00
    outer loop
      vertex   4.504717e+01  1.700224e+01  4.303162e+01
      vertex   4.504717e+01  1.700224e+01  2.703163e+01
      vertex   4.815282e+01  1.819446e+01  2.703163e+01
    endloop
  endfacet
  facet normal -5.446384e-01  8.386710e-01  0.000000e+00
    outer loop
      vertex   3.813885e+01  3.056057e+01  2.703163e+01
      vertex   3.813885e+01  3.056057e+01  4.303162e+01
      vertex   4.092876e+01  3.237235e+01  2.703163e+01
    endloop
  endfacet
  facet normal  3.583855e-01 -9.335737e-01  0.000000e+00
    outer loop
      vertex   4.815282e+01  1.819446e+01  4.303162e+01
      vertex   4.504717e+01  1.700224e+01  4.303162e+01
      vertex   4.815282e+01  1.819446e+01  2.703163e+01
    endloop
  endfacet
  facet normal  0.000000e+00  0.000000e+00  1.000000e+00
    outer loop
      vertex   4.815282e+01  1.819446e+01  4.303162e+01
      vertex   5.050508e+01  2.054660e+01  4.303162e+01
      vertex   5.001289e+01  2.993827e+01  4.303162e+01
    endloop
  endfacet
  facet normal -9.659268e-01 -2.588152e-01 -0.000000e+00
    outer loop
      vertex   3.580667e+01  2.448503e+01  4.303162e+01
      vertex   3.580667e+01  2.448503e+01  2.703163e+01
      vertex   3.666764e+01  2.127178e+01  2.703163e+01
    endloop
  endfacet
  facet normal  0.000000e+00  0.000000e+00  1.000000e+00
    outer loop
      vertex   4.504717e+01  1.700224e+01  4.303162e+01
      vertex   4.815282e+01  1.819446e+01  4.303162e+01
      vertex   4.742764e+01  3.203176e+01  4.303162e+01
    endloop
  endfacet
  facet normal  7.070893e-01 -7.071243e-01  0.000000e+00
    outer loop
      vertex   5.050508e+01  2.054660e+01  4.303162e+01
      vertex   4.815282e+01  1.819446e+01  4.303162e+01
      vertex   5.050508e+01  2.054660e+01  2.703163e+01
    endloop
  endfacet
  facet normal  7.070893e-01 -7.071243e-01  0.000000e+00
    outer loop
      vertex   4.815282e+01  1.819446e+01  4.303162e+01
      vertex   4.815282e+01  1.819446e+01  2.703163e+01
      vertex   5.050508e+01  2.054660e+01  2.703163e+01
    endloop
  endfacet
  facet normal  0.000000e+00  0.000000e+00 -1.000000e+00
    outer loop
      vertex   4.815282e+01  1.819446e+01  2.703163e+01
      vertex   3.580667e+01  2.448503e+01  2.703163e+01
      vertex   5.050508e+01  2.054660e+01  2.703163e+01
    endloop
  endfacet
  facet normal  0.000000e+00  0.000000e+00  1.000000e+00
    outer loop
      vertex   4.421439e+01  3.289275e+01  4.303162e+01
      vertex   4.504717e+01  1.700224e+01  4.303162e+01
      vertex   4.742764e+01  3.203176e+01  4.303162e+01
    endloop
  endfacet
  facet normal  2.588134e-01  9.659273e-01 -1.381770e-06
    outer loop
      vertex   4.421439e+01  3.289273e+01  2.703163e+01
      vertex   4.421439e+01  3.289275e+01  4.303162e+01
      vertex   4.742764e+01  3.203176e+01  2.703163e+01
    endloop
  endfacet
  facet normal  0.000000e+00  0.000000e+00 -1.000000e+00
    outer loop
      vertex   3.666764e+01  2.127178e+01  2.703163e+01
      vertex   3.580667e+01  2.448503e+01  2.703163e+01
      vertex   4.815282e+01  1.819446e+01  2.703163e+01
    endloop
  endfacet
  facet normal -1.564371e-01  9.876879e-01 -1.412899e-06
    outer loop
      vertex   4.421439e+01  3.289273e+01  2.703163e+01
      vertex   4.092876e+01  3.237235e+01  4.303162e+01
      vertex   4.421439e+01  3.289275e+01  4.303162e+01
    endloop
  endfacet
  facet normal -0.000000e+00  0.000000e+00  1.000000e+00
    outer loop
      vertex   4.092876e+01  3.237235e+01  4.303162e+01
      vertex   4.172515e+01  1.717639e+01  4.303162e+01
      vertex   4.421439e+01  3.289275e+01  4.303162e+01
    endloop
  endfacet
  facet normal  0.000000e+00  0.000000e+00 -1.000000e+00
    outer loop
      vertex   3.813885e+01  3.056057e+01  2.703163e+01
      vertex   4.092876e+01  3.237235e+01  2.703163e+01
      vertex   5.152313e+01  2.697426e+01  2.703163e+01
    endloop
  endfacet
  facet normal -8.386676e-01  5.446435e-01  0.000000e+00
    outer loop
      vertex   3.632705e+01  2.777066e+01  2.703163e+01
      vertex   3.632705e+01  2.777066e+01  4.303162e+01
      vertex   3.813885e+01  3.056057e+01  2.703163e+01
    endloop
  endfacet
  facet normal  0.000000e+00  0.000000e+00  1.000000e+00
    outer loop
      vertex   4.742764e+01  3.203176e+01  4.303162e+01
      vertex   4.815282e+01  1.819446e+01  4.303162e+01
      vertex   5.001289e+01  2.993827e+01  4.303162e+01
    endloop
  endfacet
  facet normal -9.876891e-01  1.564301e-01  0.000000e+00
    outer loop
      vertex   3.580667e+01  2.448503e+01  2.703163e+01
      vertex   3.580667e+01  2.448503e+01  4.303162e+01
      vertex   3.632705e+01  2.777066e+01  2.703163e+01
    endloop
  endfacet
  facet normal  0.000000e+00  0.000000e+00  1.000000e+00
    outer loop
      vertex   5.050508e+01  2.054660e+01  4.303162e+01
      vertex   5.169723e+01  2.365224e+01  4.303162e+01
      vertex   5.152313e+01  2.697426e+01  4.303162e+01
    endloop
  endfacet
  facet normal  0.000000e+00  0.000000e+00 -1.000000e+00
    outer loop
      vertex   3.580667e+01  2.448503e+01  2.703163e+01
      vertex   3.632705e+01  2.777066e+01  2.703163e+01
      vertex   5.050508e+01  2.054660e+01  2.703163e+01
    endloop
  endfacet
  facet normal -4.539934e-01 -8.910050e-01  0.000000e+00
    outer loop
      vertex   4.172515e+01  1.717639e+01  2.703163e+01
      vertex   4.172515e+01  1.717639e+01  4.303162e+01
      vertex   3.876113e+01  1.868665e+01  2.703163e+01
    endloop
  endfacet
  facet normal  0.000000e+00  0.000000e+00 -1.000000e+00
    outer loop
      vertex   5.169723e+01  2.365224e+01  2.703163e+01
      vertex   3.813885e+01  3.056057e+01  2.703163e+01
      vertex   5.152313e+01  2.697426e+01  2.703163e+01
    endloop
  endfacet
  facet normal -7.771353e-01 -6.293337e-01  9.002692e-07
    outer loop
      vertex   3.666764e+01  2.127178e+01  2.703163e+01
      vertex   3.876113e+01  1.868665e+01  4.303162e+01
      vertex   3.666764e+01  2.127180e+01  4.303162e+01
    endloop
  endfacet
  facet normal -0.000000e+00  0.000000e+00  1.000000e+00
    outer loop
      vertex   3.813885e+01  3.056057e+01  4.303162e+01
      vertex   3.876113e+01  1.868665e+01  4.303162e+01
      vertex   4.092876e+01  3.237235e+01  4.303162e+01
    endloop
  endfacet
  facet normal -0.000000e+00  0.000000e+00  1.000000e+00
    outer loop
      vertex   3.666764e+01  2.127180e+01  4.303162e+01
      vertex   3.876113e+01  1.868665e+01  4.303162e+01
      vertex   3.813885e+01  3.056057e+01  4.303162e+01
    endloop
  endfacet
  facet normal  0.000000e+00  0.000000e+00 -1.000000e+00
    outer loop
      vertex   5.001289e+01  2.993827e+01  2.703163e+01
      vertex   4.421439e+01  3.289273e+01  2.703163e+01
      vertex   4.742764e+01  3.203176e+01  2.703163e+01
    endloop
  endfacet
  facet normal  6.293195e-01  7.771467e-01  0.000000e+00
    outer loop
      vertex   5.001289e+01  2.993827e+01  4.303162e+01
      vertex   5.001289e+01  2.993827e+01  2.703163e+01
      vertex   4.742764e+01  3.203176e+01  2.703163e+01
    endloop
  endfacet
  facet normal  6.293195e-01  7.771467e-01  0.000000e+00
    outer loop
      vertex   4.742764e+01  3.203176e+01  4.303162e+01
      vertex   5.001289e+01  2.993827e+01  4.303162e+01
      vertex   4.742764e+01  3.203176e+01  2.703163e+01
    endloop
  endfacet
  facet normal  0.000000e+00  0.000000e+00  1.000000e+00
    outer loop
      vertex   5.001289e+01  2.993827e+01  4.303162e+01
      vertex   5.050508e+01  2.054660e+01  4.303162e+01
      vertex   5.152313e+01  2.697426e+01  4.303162e+01
    endloop
  endfacet
  facet normal -9.876891e-01  1.564301e-01  0.000000e+00
    outer loop
      vertex   3.632705e+01  2.777066e+01  2.703163e+01
      vertex   3.580667e+01  2.448503e+01  4.303162e+01
      vertex   3.632705e+01  2.777066e+01  4.303162e+01
    endloop
  endfacet
  facet normal  8.910066e-01  4.539903e-01 -0.000000e+00
    outer loop
      vertex   5.152313e+01  2.697426e+01  2.703163e+01
      vertex   5.001289e+01  2.993827e+01  4.303162e+01
      vertex   5.152313e+01  2.697426e+01  4.303162e+01
    endloop
  endfacet
  facet normal  0.000000e+00  0.000000e+00 -1.000000e+00
    outer loop
      vertex   3.632705e+01  2.777066e+01  2.703163e+01
      vertex   3.813885e+01  3.056057e+01  2.703163e+01
      vertex   5.169723e+01  2.365224e+01  2.703163e+01
    endloop
  endfacet
  facet normal -0.000000e+00  0.000000e+00  1.000000e+00
    outer loop
      vertex   3.580667e+01  2.448503e+01  4.303162e+01
      vertex   3.666764e+01  2.127180e+01  4.303162e+01
      vertex   3.632705e+01  2.777066e+01  4.303162e+01
    endloop
  endfacet
  facet normal  9.986295e-01  5.233571e-02 -0.000000e+00
    outer loop
      vertex   5.169723e+01  2.365224e+01  2.703163e+01
      vertex   5.152313e+01  2.697426e+01  4.303162e+01
      vertex   5.169723e+01  2.365224e+01  4.303162e+01
    endloop
  endfacet
  facet normal  0.000000e+00  0.000000e+00 -1.000000e+00
    outer loop
      vertex   5.152313e+01  2.697426e+01  2.703163e+01
      vertex   4.092876e+01  3.237235e+01  2.703163e+01
      vertex   5.001289e+01  2.993827e+01  2.703163e+01
    endloop
  endfacet
  facet normal  0.000000e+00  0.000000e+00 -1.000000e+00
    outer loop
      vertex   4.092876e+01  3.237235e+01  2.703163e+01
      vertex   4.421439e+01  3.289273e+01  2.703163e+01
      vertex   5.001289e+01  2.993827e+01  2.703163e+01
    endloop
  endfacet
  facet normal  8.910066e-01  4.539903e-01 -0.000000e+00
    outer loop
      vertex   5.001289e+01  2.993827e+01  2.703163e+01
      vertex   5.001289e+01  2.993827e+01  4.303162e+01
      vertex   5.152313e+01  2.697426e+01  2.703163e+01
    endloop
  endfacet
  facet normal -4.539934e-01 -8.910050e-01  0.000000e+00
    outer loop
      vertex   3.876113e+01  1.868665e+01  2.703163e+01
      vertex   4.172515e+01  1.717639e+01  4.303162e+01
      vertex   3.876113e+01  1.868665e+01  4.303162e+01
    endloop
  endfacet
  facet normal -0.000000e+00  0.000000e+00  1.000000e+00
    outer loop
      vertex   3.876113e+01  1.868665e+01  4.303162e+01
      vertex   4.172515e+01  1.717639e+01  4.303162e+01
      vertex   4.092876e+01  3.237235e+01  4.303162e+01
    endloop
  endfacet
  facet normal  0.000000e+00  0.000000e+00 -1.000000e+00
    outer loop
      vertex   5.050508e+01  2.054660e+01  2.703163e+01
      vertex   3.632705e+01  2.777066e+01  2.703163e+01
      vertex   5.169723e+01  2.365224e+01  2.703163e+01
    endloop
  endfacet
  facet normal -9.659264e-01 -2.588170e-01  3.702407e-07
    outer loop
      vertex   3.666764e+01  2.127180e+01  4.303162e+01
      vertex   3.580667e+01  2.448503e+01  4.303162e+01
      vertex   3.666764e+01  2.127178e+01  2.703163e+01
    endloop
  endfacet
  facet normal  9.335802e-01 -3.583685e-01  0.000000e+00
    outer loop
      vertex   5.169723e+01  2.365224e+01  2.703163e+01
      vertex   5.169723e+01  2.365224e+01  4.303162e+01
      vertex   5.050508e+01  2.054660e+01  2.703163e+01
    endloop
  endfacet
  facet normal -0.000000e+00  0.000000e+00  1.000000e+00
    outer loop
      vertex   4.172515e+01  1.717639e+01  4.303162e+01
      vertex   4.504717e+01  1.700224e+01  4.303162e+01
      vertex   4.421439e+01  3.289275e+01  4.303162e+01
    endloop
  endfacet
  facet normal  9.335802e-01 -3.583685e-01  0.000000e+00
    outer loop
      vertex   5.050508e+01  2.054660e+01  2.703163e+01
      vertex   5.169723e+01  2.365224e+01  4.303162e+01
      vertex   5.050508e+01  2.054660e+01  4.303162e+01
    endloop
  endfacet
  facet normal -7.771325e-01 -6.293371e-01  0.000000e+00
    outer loop
      vertex   3.876113e+01  1.868665e+01  2.703163e+01
      vertex   3.876113e+01  1.868665e+01  4.303162e+01
      vertex   3.666764e+01  2.127178e+01  2.703163e+01
    endloop
  endfacet
  facet normal -5.446384e-01  8.386710e-01  0.000000e+00
    outer loop
      vertex   4.092876e+01  3.237235e+01  2.703163e+01
      vertex   3.813885e+01  3.056057e+01  4.303162e+01
      vertex   4.092876e+01  3.237235e+01  4.303162e+01
    endloop
  endfacet
  facet normal -5.235058e-02 -9.986288e-01  0.000000e+00
    outer loop
      vertex   4.172515e+01  1.717639e+01  2.703163e+01
      vertex   4.504717e+01  1.700224e+01  4.303162e+01
      vertex   4.172515e+01  1.717639e+01  4.303162e+01
    endloop
  endfacet
  facet normal -1.564304e-01  9.876890e-01  0.000000e+00
    outer loop
      vertex   4.092876e+01  3.237235e+01  2.703163e+01
      vertex   4.092876e+01  3.237235e+01  4.303162e+01
      vertex   4.421439e+01  3.289273e+01  2.703163e+01
    endloop
  endfacet
  facet normal -0.000000e+00  0.000000e+00  1.000000e+00
    outer loop
      vertex   3.632705e+01  2.777066e+01  4.303162e+01
      vertex   3.666764e+01  2.127180e+01  4.303162e+01
      vertex   3.813885e+01  3.056057e+01  4.303162e+01
    endloop
  endfacet
  facet normal  2.588198e-01  9.659256e-01 -0.000000e+00
    outer loop
      vertex   4.742764e+01  3.203176e+01  2.703163e+01
      vertex   4.421439e+01  3.289275e+01  4.303162e+01
      vertex   4.742764e+01  3.203176e+01  4.303162e+01
    endloop
  endfacet
  facet normal -8.386676e-01  5.446435e-01  0.000000e+00
    outer loop
      vertex   3.813885e+01  3.056057e+01  2.703163e+01
      vertex   3.632705e+01  2.777066e+01  4.303162e+01
      vertex   3.813885e+01  3.056057e+01  4.303162e+01
    endloop
  endfacet
endsolid vcg
